<svg id="Layer_1" data-name="Layer 1" xmlns="http://www.w3.org/2000/svg" viewBox="0 0 1280 1280"><defs><style>.cls-1{font-size:12px;}.cls-1,.cls-4,.cls-5,.cls-6{font-family:LucidaHandwriting-Italic, Lucida Handwriting;font-style:italic;}.cls-2{stroke:#bc2020;}.cls-2,.cls-4,.cls-5,.cls-6{stroke-miterlimit:10;stroke-width:4px;}.cls-3{fill:#4f4f4f;}.cls-4,.cls-5{font-size:238.66px;}.cls-4{fill:#cc2020;}.cls-4,.cls-5,.cls-6{stroke:#000;}.cls-5,.cls-6{fill:#c80a14;}.cls-6{font-size:148.62px;}</style></defs><polyline points="436.71 512.37 380 310 511.31 437.39"/><polyline points="760.07 432.15 926 302 836.32 501.93"/><text class="cls-1" transform="translate(424.47 454.06)"><tspan xml:space="preserve">TAC   CAT</tspan></text><circle class="cls-2" cx="640" cy="640" r="240"/><ellipse class="cls-3" cx="736.5" cy="585" rx="60.5" ry="29" transform="translate(-99.14 153.31) rotate(-11.14)"/><ellipse class="cls-3" cx="527.5" cy="585" rx="29" ry="60.5" transform="translate(-133.53 1013.39) rotate(-80.9)"/><path d="M639.88,724.59c5.09,11.8,17.92,17.14,29.47,20.49,7.78,2.26,15.7,4.08,23.55,6.08l25.87,6.56L748,765.14c1.87.48,2.67-2.41.79-2.89l-50.77-12.88c-8.1-2.06-16.22-4-24.3-6.18a83.32,83.32,0,0,1-17.53-6.35c-5.93-3.12-11.05-7.51-13.75-13.76-.77-1.77-3.35-.24-2.59,1.51Z"/><text class="cls-4" transform="translate(790.45 731.75) scale(0.79 1)">CAT</text><text class="cls-5" transform="translate(44.52 743.66) scale(0.79 1)">TAC</text><text class="cls-6" transform="translate(527.55 809.37) scale(1.44 1)">O</text></svg>